<svg width="96" height="36" viewBox="0 0 96 36" fill="none" xmlns="http://www.w3.org/2000/svg">
<path d="M0 0H96V36H0V0Z" fill="white"/>
<path d="M90.5792 23.1998C90.4203 23.5376 90.2013 23.8192 89.9201 24.0456C89.639 24.2718 89.307 24.4434 88.9241 24.559C88.5412 24.6743 88.0686 24.7318 87.5063 24.7318H84.5958V19.1779H86.9857C87.721 19.1779 88.3187 19.2431 88.7786 19.3737C89.2377 19.5043 89.6157 19.6911 89.9124 19.9327C90.2084 20.1741 90.433 20.4736 90.587 20.8305C90.7396 21.1875 90.8166 21.5926 90.8166 22.0458C90.8166 22.4786 90.7367 22.8633 90.5792 23.1998ZM89.6206 14.6863C89.5083 15.0036 89.3373 15.2807 89.1085 15.5169C88.8782 15.7539 88.5892 15.9397 88.2417 16.0753C87.8948 16.2115 87.43 16.2793 86.8479 16.2793H84.5958V11.2072H86.6332C87.2562 11.2072 87.7542 11.2624 88.1272 11.3732C88.4995 11.4844 88.8089 11.6425 89.0541 11.8485C89.2992 12.0552 89.4829 12.3146 89.6065 12.6265C89.7287 12.9382 89.7902 13.2905 89.7902 13.6833C89.7902 14.0351 89.7336 14.3697 89.6206 14.6863ZM94.6927 20.1134C94.4885 19.5803 94.2102 19.115 93.8577 18.7173C93.5052 18.3201 93.0912 17.9947 92.6165 17.7435C92.1418 17.4922 91.6226 17.3159 91.061 17.2154C91.5004 17.0541 91.891 16.8428 92.2337 16.5812C92.5763 16.3197 92.8645 16.0178 93.0997 15.6758C93.3343 15.3334 93.513 14.9534 93.6352 14.5357C93.7588 14.1182 93.8196 13.6729 93.8196 13.1997C93.8196 12.3547 93.6663 11.62 93.3597 10.9961C93.0538 10.3722 92.6116 9.856 92.0344 9.44881C91.4573 9.04108 90.7473 8.73706 89.9046 8.53512C89.0618 8.33406 88.0326 8.23352 86.8175 8.23352H81.8373C81.5003 8.23352 81.217 8.33169 80.9874 8.52775C80.7572 8.72435 80.642 9.04399 80.642 9.48651V26.5138C80.642 26.9566 80.7572 27.2759 80.9874 27.4725C81.217 27.6684 81.5003 27.7668 81.8373 27.7668H87.1086C87.9054 27.7668 88.6274 27.7193 89.2766 27.623C89.9251 27.5272 90.5354 27.3794 91.1076 27.1783C91.6791 26.9769 92.2033 26.7196 92.678 26.4076C93.1527 26.0962 93.561 25.7234 93.9043 25.2905C94.2455 24.8585 94.514 24.3603 94.7082 23.7968C94.9025 23.2333 95 22.6039 95 21.9093C95 21.2456 94.8969 20.647 94.6927 20.1134ZM71.5723 20.2638H65.9481L68.7526 11.962H68.7677L71.5723 20.2638ZM71.7404 8.97325C71.679 8.78246 71.6041 8.63119 71.5179 8.52039C71.431 8.41006 71.2883 8.32717 71.0891 8.27122C70.8899 8.21637 70.6111 8.18069 70.2537 8.16542C69.8963 8.15063 69.4162 8.14299 68.8138 8.14299C68.2931 8.14299 67.8737 8.15063 67.5569 8.16542C67.2404 8.18069 66.9926 8.21637 66.8146 8.27122C66.6352 8.32717 66.505 8.40689 66.4236 8.51269C66.3413 8.61856 66.2704 8.75658 66.2089 8.92785L60.0947 26.2572C59.9725 26.6088 59.8961 26.8912 59.8657 27.1023C59.8346 27.3134 59.8705 27.4778 59.9725 27.5931C60.0746 27.7087 60.2581 27.7818 60.5244 27.8117C60.7901 27.842 61.1571 27.8571 61.6277 27.8571C62.0664 27.8571 62.4216 27.8473 62.6928 27.8267C62.9632 27.8069 63.1721 27.7686 63.3205 27.714C63.4682 27.6586 63.5758 27.5826 63.6426 27.4871C63.7088 27.3921 63.7626 27.2733 63.8035 27.1326L65.0596 23.3138H72.5062L73.8392 27.2382C73.8802 27.3688 73.931 27.4744 73.9925 27.5549C74.054 27.6353 74.1613 27.6982 74.3139 27.7436C74.4672 27.7893 74.6897 27.8188 74.9815 27.8347C75.2725 27.8491 75.678 27.8571 76.1986 27.8571C76.6995 27.8571 77.0923 27.8438 77.3791 27.8188C77.6645 27.7945 77.8644 27.7285 77.9767 27.623C78.0883 27.5174 78.1293 27.359 78.0989 27.1472C78.0685 26.9368 77.9908 26.6492 77.8693 26.2868L71.7404 8.97325ZM59.2137 25.3433C59.1875 25.1375 59.1502 24.972 59.1 24.8458C59.0476 24.72 58.9841 24.6289 58.9068 24.574C58.831 24.5186 58.7413 24.4904 58.6397 24.4904H52.4033V8.77665C52.4033 8.67686 52.3697 8.58633 52.3034 8.50532C52.2372 8.42486 52.1274 8.35939 51.9742 8.30926C51.8211 8.25886 51.6164 8.21873 51.3611 8.1886C51.1058 8.15826 50.7788 8.14299 50.3807 8.14299C49.9925 8.14299 49.6682 8.15826 49.4074 8.1886C49.1472 8.21873 48.9402 8.25886 48.7871 8.30926C48.6339 8.35939 48.5244 8.42486 48.4573 8.50532C48.3911 8.58633 48.358 8.67686 48.358 8.77665V26.5138C48.358 26.9566 48.4734 27.2759 48.703 27.4725C48.9328 27.6684 49.2162 27.7668 49.5537 27.7668H58.6397C58.7413 27.7668 58.831 27.7364 58.9068 27.6758C58.9841 27.6156 59.0476 27.5174 59.1 27.3815C59.1502 27.2456 59.1875 27.0746 59.2137 26.8682C59.2385 26.6623 59.2523 26.4076 59.2523 26.106C59.2523 25.8038 59.2385 25.5499 59.2137 25.3433ZM45.5848 9.74304C45.7072 9.39071 45.7862 9.10891 45.8223 8.89778C45.8579 8.68639 45.8273 8.52302 45.7304 8.40689C45.6331 8.29156 45.4548 8.21873 45.194 8.1886C44.9335 8.15826 44.5681 8.14299 44.0988 8.14299C43.6184 8.14299 43.2403 8.15299 42.9646 8.17306C42.6893 8.19394 42.4768 8.23352 42.3286 8.29366C42.1807 8.35412 42.0761 8.43695 42.0149 8.54309C41.9533 8.64835 41.9023 8.78692 41.8617 8.95818L37.1268 23.9472H37.1116L32.285 8.88299C32.234 8.73179 32.1804 8.60585 32.1241 8.50532C32.0678 8.40526 31.9682 8.32926 31.8253 8.27886C31.6823 8.22873 31.4782 8.19394 31.2127 8.17306C30.947 8.15299 30.5788 8.14299 30.1095 8.14299C29.5576 8.14299 29.1285 8.1559 28.8222 8.18069C28.5159 8.2063 28.2987 8.27122 28.1712 8.37655C28.0429 8.48289 27.9924 8.64153 28.0178 8.85265C28.0429 9.06398 28.1174 9.35038 28.24 9.71271L34.1391 27.0266C34.1797 27.1577 34.2233 27.2659 34.2693 27.3517C34.3152 27.4369 34.3816 27.5095 34.4683 27.5702C34.5552 27.6301 34.6626 27.681 34.79 27.7212C34.9178 27.7615 35.0837 27.7911 35.2881 27.8117C35.4926 27.8315 35.7402 27.8438 36.0316 27.8491C36.3224 27.8544 36.6726 27.8571 37.0809 27.8571C37.5918 27.8571 38.0054 27.8491 38.3221 27.8347C38.6387 27.8188 38.889 27.784 39.0727 27.7285C39.2568 27.6737 39.3892 27.5931 39.4712 27.4871C39.5526 27.3815 39.6194 27.243 39.6704 27.0719L45.5848 9.74304ZM25.4819 9.81878C25.4819 9.56732 25.4488 9.34267 25.3823 9.14688C25.3155 8.95028 25.2186 8.78482 25.0914 8.64835C24.9634 8.51269 24.8 8.41006 24.6008 8.33932C24.4018 8.26913 24.1642 8.23352 23.8886 8.23352H21.1765C20.7985 8.23352 20.4666 8.27122 20.1804 8.34642C19.8943 8.42243 19.6467 8.55072 19.4376 8.73179C19.2279 8.91305 19.0441 9.14925 18.8857 9.44118C18.727 9.73331 18.5819 10.0904 18.4491 10.5132L14.0056 22.121H13.9444L9.65393 10.4828C9.53172 10.0603 9.38817 9.70507 9.22485 9.41868C9.06145 9.13134 8.8573 8.90069 8.61196 8.72436C8.36718 8.54836 8.07579 8.42243 7.7389 8.34642C7.40165 8.27122 6.99797 8.23352 6.52831 8.23352H3.89304C3.43331 8.23352 3.06547 8.36966 2.78981 8.64153C2.51386 8.91305 2.37589 9.30552 2.37589 9.81878V27.2232C2.37589 27.3234 2.40404 27.4145 2.46005 27.495C2.51634 27.5755 2.61844 27.6406 2.7669 27.6908C2.91481 27.7418 3.11128 27.7818 3.35659 27.8117C3.60191 27.842 3.90821 27.8571 4.27577 27.8571C4.65354 27.8571 4.96287 27.842 5.20294 27.8117C5.44274 27.7818 5.63976 27.7418 5.79291 27.6908C5.94607 27.6406 6.05064 27.5755 6.10666 27.495C6.16296 27.4145 6.19138 27.3234 6.19138 27.2232V11.3281H6.22201L11.7685 27.2078C11.7991 27.3187 11.8606 27.4145 11.9523 27.495C12.0445 27.5755 12.1697 27.6433 12.3279 27.6982C12.4862 27.7541 12.6879 27.7945 12.9333 27.8188C13.1783 27.8438 13.4744 27.8571 13.8215 27.8571C14.1687 27.8571 14.4656 27.8491 14.7103 27.8347C14.9557 27.8188 15.1571 27.7866 15.3158 27.7364C15.4736 27.6863 15.5992 27.6177 15.6911 27.5325C15.7832 27.4475 15.8492 27.3392 15.8903 27.2078L21.6363 11.3281H21.6667V27.2232C21.6667 27.3234 21.6973 27.4145 21.7588 27.495C21.8198 27.5755 21.9219 27.6406 22.0652 27.6908C22.2081 27.7418 22.402 27.7818 22.6474 27.8117C22.8924 27.842 23.199 27.8571 23.5665 27.8571C23.9446 27.8571 24.2564 27.842 24.5012 27.8117C24.7465 27.7818 24.9432 27.7418 25.0914 27.6908C25.2393 27.6406 25.3414 27.5755 25.3977 27.495C25.4537 27.4145 25.4819 27.3234 25.4819 27.2232V9.81878ZM46.7614 36H0V0H46.7614V36Z" fill="#3F51B5"/>
</svg>
