<svg width="330" height="109" viewBox="0 0 330 109" fill="none" xmlns="http://www.w3.org/2000/svg">
<rect x="3.46777" y="13.8701" width="130.612" height="75.1307" fill="white"/>
<path d="M262.293 70.2439C261.832 71.2667 261.198 72.1194 260.384 72.8048C259.57 73.4897 258.608 74.0091 257.5 74.3591C256.391 74.7083 255.023 74.8825 253.394 74.8825H244.966V58.0663H251.887C254.016 58.0663 255.747 58.2637 257.078 58.6591C258.408 59.0547 259.502 59.6203 260.362 60.3517C261.219 61.0827 261.869 61.9896 262.315 63.07C262.757 64.1511 262.98 65.3777 262.98 66.7497C262.98 68.0601 262.749 69.225 262.293 70.2439ZM259.517 44.467C259.191 45.4276 258.696 46.2665 258.034 46.9816C257.367 47.6992 256.53 48.2618 255.524 48.6725C254.519 49.0847 253.173 49.2901 251.488 49.2901H244.966V33.933H250.866C252.67 33.933 254.112 34.1001 255.192 34.4356C256.27 34.7721 257.166 35.2508 257.876 35.8747C258.586 36.5004 259.118 37.2859 259.476 38.2304C259.83 39.174 260.008 40.2408 260.008 41.4299C260.008 42.495 259.844 43.5082 259.517 44.467ZM274.204 60.8988C273.613 59.2849 272.807 57.8761 271.786 56.6718C270.765 55.4692 269.567 54.4841 268.192 53.7233C266.817 52.9625 265.314 52.4288 263.688 52.1245C264.96 51.6362 266.091 50.9961 267.083 50.2043C268.075 49.4124 268.91 48.4982 269.591 47.4628C270.27 46.4263 270.788 45.2756 271.142 44.0108C271.5 42.7466 271.676 41.3986 271.676 39.9659C271.676 37.4074 271.232 35.1828 270.344 33.2937C269.458 31.4048 268.178 29.8418 266.507 28.6089C264.835 27.3744 262.779 26.4539 260.339 25.8424C257.899 25.2337 254.918 24.9293 251.4 24.9293H236.978C236.003 24.9293 235.182 25.2265 234.517 25.8201C233.851 26.4154 233.517 27.3832 233.517 28.723V80.2778C233.517 81.6185 233.851 82.5854 234.517 83.1807C235.182 83.7737 236.003 84.0718 236.978 84.0718H252.243C254.55 84.0718 256.641 83.9278 258.521 83.6363C260.398 83.3462 262.166 82.8986 263.823 82.2898C265.478 81.6801 266.995 80.9011 268.37 79.9564C269.745 79.0136 270.927 77.8847 271.921 76.574C272.909 75.2661 273.687 73.7575 274.249 72.0514C274.812 70.3454 275.094 68.4397 275.094 66.3364C275.094 64.3269 274.795 62.5147 274.204 60.8988ZM207.254 61.3544H190.968L199.089 36.2183H199.133L207.254 61.3544ZM207.741 27.169C207.563 26.5913 207.346 26.1333 207.096 25.7978C206.845 25.4638 206.431 25.2128 205.855 25.0434C205.278 24.8773 204.47 24.7693 203.435 24.7231C202.401 24.6783 201.01 24.6552 199.266 24.6552C197.758 24.6552 196.544 24.6783 195.626 24.7231C194.71 24.7693 193.992 24.8773 193.477 25.0434C192.957 25.2128 192.58 25.4542 192.344 25.7745C192.106 26.0951 191.901 26.513 191.723 27.0315L174.018 79.5011C173.664 80.5654 173.443 81.4205 173.355 82.0597C173.265 82.699 173.368 83.1967 173.664 83.5458C173.96 83.8958 174.491 84.1172 175.262 84.2076C176.032 84.2994 177.094 84.3451 178.457 84.3451C179.727 84.3451 180.756 84.3154 181.541 84.253C182.324 84.1931 182.929 84.0773 183.359 83.9118C183.786 83.7441 184.098 83.5139 184.292 83.2247C184.483 82.9371 184.639 82.5775 184.757 82.1516L188.395 70.589H209.958L213.818 82.4711C213.937 82.8667 214.084 83.1862 214.262 83.4301C214.44 83.6737 214.751 83.8639 215.193 84.0014C215.637 84.1397 216.281 84.2291 217.126 84.2771C217.969 84.3209 219.143 84.3451 220.65 84.3451C222.101 84.3451 223.238 84.305 224.069 84.2291C224.895 84.1556 225.474 83.9558 225.799 83.6363C226.122 83.3165 226.241 82.837 226.153 82.1955C226.065 81.5585 225.84 80.6877 225.488 79.5905L207.741 27.169ZM171.467 76.734C171.391 76.1107 171.283 75.6095 171.137 75.2276C170.986 74.8465 170.802 74.5708 170.578 74.4047C170.358 74.2367 170.099 74.1514 169.805 74.1514H151.746V26.5737C151.746 26.2716 151.648 25.9975 151.456 25.7522C151.265 25.5086 150.947 25.3104 150.503 25.1586C150.06 25.006 149.467 24.8845 148.728 24.7933C147.989 24.7014 147.042 24.6552 145.889 24.6552C144.764 24.6552 143.826 24.7014 143.07 24.7933C142.317 24.8845 141.718 25.006 141.274 25.1586C140.831 25.3104 140.513 25.5086 140.319 25.7522C140.127 25.9975 140.032 26.2716 140.032 26.5737V80.2778C140.032 81.6185 140.366 82.5854 141.03 83.1807C141.696 83.7737 142.517 84.0718 143.494 84.0718H169.805C170.099 84.0718 170.358 83.9797 170.578 83.796C170.802 83.6138 170.986 83.3165 171.137 82.905C171.283 82.4936 171.391 81.9758 171.467 81.3509C171.538 80.7276 171.579 79.9564 171.579 79.0433C171.579 78.1283 171.538 77.3596 171.467 76.734ZM132.001 29.4998C132.356 28.433 132.584 27.5798 132.689 26.9405C132.792 26.3004 132.703 25.8058 132.423 25.4542C132.141 25.105 131.625 24.8845 130.87 24.7933C130.115 24.7014 129.057 24.6552 127.698 24.6552C126.307 24.6552 125.212 24.6854 124.414 24.7462C123.616 24.8094 123.001 24.9293 122.572 25.1113C122.144 25.2944 121.841 25.5452 121.664 25.8666C121.485 26.1853 121.337 26.6048 121.22 27.1234L107.509 72.5068H107.465L93.4885 26.8957C93.3408 26.4379 93.1857 26.0566 93.0227 25.7522C92.8597 25.4493 92.5712 25.2191 92.1574 25.0665C91.7434 24.9148 91.1522 24.8094 90.3835 24.7462C89.6139 24.6854 88.548 24.6552 87.1889 24.6552C85.5906 24.6552 84.3481 24.6943 83.4612 24.7693C82.5742 24.8468 81.9454 25.0434 81.5762 25.3623C81.2047 25.6843 81.0584 26.1646 81.1319 26.8039C81.2047 27.4437 81.4203 28.3109 81.7752 29.4079L98.8576 81.8304C98.975 82.2275 99.1012 82.5552 99.2346 82.8147C99.3673 83.0729 99.5598 83.2926 99.8108 83.4763C100.062 83.6577 100.373 83.812 100.742 83.9335C101.112 84.0556 101.593 84.1452 102.185 84.2076C102.777 84.2675 103.494 84.305 104.338 84.3209C105.18 84.3369 106.194 84.3451 107.376 84.3451C108.855 84.3451 110.053 84.3209 110.97 84.2771C111.887 84.2291 112.612 84.1237 113.144 83.9558C113.677 83.7897 114.06 83.5458 114.298 83.2247C114.533 82.905 114.727 82.4856 114.875 81.9677L132.001 29.4998ZM73.7886 29.7291C73.7886 28.9677 73.6926 28.2875 73.5001 27.6947C73.3066 27.0995 73.0262 26.5985 72.6578 26.1853C72.2871 25.7745 71.8139 25.4638 71.2371 25.2496C70.6611 25.0371 69.9729 24.9293 69.1747 24.9293H61.3215C60.2269 24.9293 59.2656 25.0434 58.437 25.2711C57.6083 25.5012 56.8915 25.8897 56.2858 26.4379C55.6787 26.9867 55.1464 27.7019 54.6878 28.5858C54.2284 29.4703 53.808 30.5514 53.4236 31.8315L40.5564 66.9773H40.3791L27.9551 31.7395C27.6012 30.4604 27.1856 29.3848 26.7126 28.5177C26.2395 27.6477 25.6483 26.9493 24.9379 26.4154C24.2291 25.8825 23.3853 25.5012 22.4097 25.2711C21.4332 25.0434 20.2642 24.9293 18.9042 24.9293H11.2732C9.94193 24.9293 8.87677 25.3415 8.07851 26.1646C7.27944 26.9867 6.87992 28.175 6.87992 29.7291V82.4257C6.87992 82.7292 6.96143 83.005 7.12363 83.2486C7.28664 83.4925 7.58229 83.6897 8.01219 83.8416C8.44048 83.9959 9.00942 84.1172 9.71978 84.2076C10.4302 84.2994 11.3171 84.3451 12.3814 84.3451C13.4754 84.3451 14.3711 84.2994 15.0663 84.2076C15.7607 84.1172 16.3312 83.9959 16.7747 83.8416C17.2182 83.6897 17.521 83.4925 17.6832 83.2486C17.8462 83.005 17.9285 82.7292 17.9285 82.4257V34.2989H18.0172L34.0784 82.3792C34.167 82.7149 34.3452 83.005 34.6105 83.2486C34.8774 83.4925 35.2401 83.6976 35.6981 83.8639C36.1567 84.0333 36.7408 84.1556 37.4512 84.2291C38.1608 84.305 39.0181 84.3451 40.0233 84.3451C41.0285 84.3451 41.8883 84.3209 42.5971 84.2771C43.3075 84.2291 43.8909 84.1317 44.3504 83.9797C44.8074 83.8279 45.1709 83.6203 45.437 83.3622C45.704 83.1048 45.8948 82.7771 46.0139 82.3792L62.6527 34.2989H62.7407V82.4257C62.7407 82.7292 62.8295 83.005 63.0077 83.2486C63.1842 83.4925 63.4798 83.6897 63.8946 83.8416C64.3085 83.9959 64.8702 84.1172 65.5806 84.2076C66.2902 84.2994 67.1778 84.3451 68.2421 84.3451C69.3369 84.3451 70.2399 84.2994 70.9487 84.2076C71.6591 84.1172 72.2288 83.9959 72.6578 83.8416C73.0861 83.6897 73.3817 83.4925 73.5447 83.2486C73.707 83.005 73.7886 82.7292 73.7886 82.4257V29.7291ZM135.408 109H0V0H135.408V109Z" fill="#597CC7"/>
<path d="M286.668 8.3032C288.924 8.12971 290.037 8.04297 290.008 8.04297C290.268 8.04297 290.442 8.14417 290.529 8.34658C290.586 8.49115 290.095 10.602 289.054 14.679L287.492 20.8379L287.623 20.7511C288.23 20.2885 288.779 19.9415 289.271 19.7102C290.167 19.2765 291.165 19.0307 292.263 18.9729C293.854 18.915 295.126 19.2765 296.08 20.0572C296.716 20.5487 297.165 21.2716 297.425 22.2258C297.483 22.486 297.512 22.9631 297.512 23.6571C297.512 24.4089 297.497 24.886 297.468 25.0884C297.15 26.7366 296.369 29.2955 295.126 32.7654C294.663 34.0087 294.389 34.8617 294.302 35.3243C294.215 36.0472 294.302 36.452 294.562 36.5388C294.909 36.6544 295.314 36.5821 295.777 36.3219C296.673 35.7725 297.425 34.428 298.032 32.2883C298.177 31.8256 298.321 31.5798 298.466 31.5509C298.552 31.522 298.856 31.5075 299.377 31.5075C300.013 31.5075 300.36 31.5365 300.417 31.5943C300.591 31.71 300.591 32.0136 300.417 32.5051C300.099 33.6328 299.622 34.6882 298.986 35.6713C297.83 37.4062 296.514 38.3749 295.039 38.5773C294.519 38.6929 293.984 38.664 293.434 38.4905C292.596 38.317 291.96 37.9267 291.526 37.3195C290.977 36.6544 290.702 35.8737 290.702 34.9774C290.702 34.428 290.919 33.5316 291.353 32.2883C292.769 28.4715 293.565 25.7679 293.738 24.1776C293.854 23.4836 293.839 22.833 293.695 22.2258C293.492 21.6475 293.203 21.2861 292.827 21.1415C292.538 20.9969 292.09 20.968 291.483 21.0547C289.574 21.3439 287.926 22.7897 286.538 25.392L286.235 25.9559L284.847 31.4642C283.921 35.1653 283.401 37.1171 283.285 37.3195C282.794 38.1002 282.114 38.5339 281.247 38.6207C280.408 38.6207 279.888 38.2737 279.685 37.5797C279.628 37.4351 279.599 37.305 279.599 37.1894C279.599 36.9869 280.625 32.7654 282.678 24.5246C284.818 15.9657 285.83 11.5561 285.714 11.2959C285.512 11.0935 284.89 10.9778 283.849 10.9489C283.155 10.9489 282.75 10.8477 282.635 10.6453L282.591 10.5152L282.808 9.64776C282.924 9.09837 283.04 8.76584 283.155 8.65019C283.242 8.56344 283.329 8.52007 283.415 8.52007L286.668 8.3032Z" fill="#50C754"/>
<path d="M326.517 18.9729C327.5 18.7705 328.237 19.2186 328.729 20.3174C328.815 20.5198 328.888 20.7222 328.945 20.9246C329.003 21.1849 329.032 21.662 329.032 22.3559C329.032 23.5125 328.758 25.2041 328.208 27.4305C327.399 30.5823 326.618 32.9244 325.866 34.4569C324.507 37.2327 322.7 38.6207 320.444 38.6207C318.247 38.6207 316.628 37.9556 315.587 36.6255L315.5 36.4954L315.326 36.6689C314.893 37.1604 314.531 37.5074 314.242 37.7098C313.693 38.0857 313.158 38.346 312.637 38.4905C311.307 38.8086 309.905 38.6785 308.43 38.1002C308.257 38.0134 308.098 37.9411 307.953 37.8833C307.375 37.5942 306.912 37.2761 306.565 36.9291C305.669 36.0038 305.221 34.7171 305.221 33.069C305.221 31.6521 305.828 29.2666 307.042 25.9125C307.129 25.6812 307.23 25.4209 307.346 25.1318C307.866 23.5993 308.156 22.6162 308.213 22.1824C308.358 21.5174 308.286 21.1415 307.997 21.0547C307.65 20.9391 307.245 21.0114 306.782 21.2716C306.175 21.6475 305.698 22.2403 305.351 23.0499C305.062 23.5704 304.744 24.4523 304.397 25.6956C304.31 25.8691 304.252 25.9703 304.223 25.9992C304.165 26.0571 303.818 26.086 303.182 26.086H302.228L302.098 25.9559C302.011 25.8691 301.968 25.7534 301.968 25.6089C302.026 25.1462 302.271 24.4234 302.705 23.4402C303.226 22.3415 303.876 21.3728 304.657 20.5343C305.235 19.9849 305.813 19.5801 306.392 19.3198C306.854 19.1174 307.418 19.0162 308.083 19.0162C308.806 19.0162 309.428 19.1464 309.948 19.4066C310.324 19.609 310.613 19.8259 310.816 20.0572C311.047 20.2596 311.264 20.5487 311.466 20.9246C311.727 21.474 311.842 22.0523 311.813 22.6595C311.813 23.2378 311.625 24.033 311.249 25.045C311.221 25.1896 311.163 25.3631 311.076 25.5655C309.833 29.0353 309.153 31.4497 309.037 32.8087C308.893 34.8328 309.471 36.0328 310.772 36.4086C311.495 36.6689 312.117 36.64 312.637 36.3219C312.984 36.1484 313.346 35.787 313.722 35.2376C314.358 34.3123 314.661 33.6906 314.633 33.3726C314.575 33.1702 314.618 32.5485 314.763 31.5075C314.82 31.1316 315.269 29.31 316.107 26.0426C316.946 22.5439 317.466 20.6644 317.669 20.4042C317.698 20.3463 317.77 20.2596 317.885 20.1439C318.522 19.5078 319.244 19.2909 320.054 19.4933C320.748 19.7247 321.124 20.1728 321.182 20.8379C321.182 21.0403 320.777 22.7897 319.967 26.086C319.129 29.4401 318.681 31.2762 318.623 31.5943C318.305 33.2424 318.348 34.5003 318.753 35.3677C318.984 35.8593 319.302 36.1773 319.707 36.3219C320.285 36.6111 320.878 36.6544 321.485 36.452C322.295 36.1629 323.003 35.3822 323.611 34.1099C324.247 32.8087 324.883 30.8714 325.519 28.298C325.837 27.0257 325.967 26.1149 325.909 25.5655C325.794 24.5535 325.403 23.7149 324.738 23.0499C324.507 22.8186 324.348 22.6017 324.261 22.3993C324.174 22.2258 324.131 21.9656 324.131 21.6186C324.131 21.2716 324.16 21.0114 324.218 20.8379C324.536 20.115 325.013 19.5945 325.649 19.2765C325.88 19.1319 326.17 19.0307 326.517 18.9729Z" fill="#50C754"/>
</svg>
