<svg width="60" height="60" viewBox="0 0 60 60" fill="none" xmlns="http://www.w3.org/2000/svg">
<path d="M30 0C13.4313 0 0 13.4313 0 30C0 46.5687 13.4313 60 30 60C46.5687 60 60 46.5687 60 30C60 13.4313 46.5687 0 30 0Z" fill="#597CC7"/>
<rect x="10" y="19" width="40" height="22" fill="white"/>
<path d="M49.9432 22.2018C50.0532 21.869 50.1242 21.6029 50.1566 21.4035C50.1886 21.2038 50.1611 21.0495 50.074 20.9398C49.9866 20.8309 49.8265 20.7621 49.5923 20.7337C49.3583 20.705 49.0301 20.6906 48.6085 20.6906C48.177 20.6906 47.8374 20.7001 47.5899 20.719C47.3425 20.7387 47.1517 20.7761 47.0186 20.8329C46.8857 20.89 46.7918 20.9682 46.7368 21.0685C46.6815 21.1679 46.6357 21.2988 46.5992 21.4605L42.3464 35.6168H42.3328L37.9977 21.3895C37.9518 21.2467 37.9037 21.1278 37.8532 21.0328C37.8026 20.9383 37.7131 20.8665 37.5848 20.8189C37.4564 20.7716 37.273 20.7387 37.0346 20.719C36.7959 20.7001 36.4652 20.6906 36.0437 20.6906C35.5479 20.6906 35.1626 20.7028 34.8874 20.7262C34.6123 20.7504 34.4173 20.8117 34.3028 20.9112C34.1875 21.0116 34.1422 21.1614 34.165 21.3608C34.1875 21.5604 34.2544 21.8309 34.3645 22.1731L39.663 38.5251C39.6994 38.6489 39.7386 38.7512 39.7799 38.8321C39.8211 38.9126 39.8808 38.9812 39.9587 39.0385C40.0367 39.0951 40.1332 39.1432 40.2476 39.1811C40.3624 39.2192 40.5114 39.2471 40.695 39.2666C40.8787 39.2853 41.101 39.297 41.3627 39.3019C41.624 39.3069 41.9385 39.3095 42.3053 39.3095C42.7641 39.3095 43.1356 39.3019 43.4201 39.2883C43.7044 39.2733 43.9292 39.2404 44.0942 39.188C44.2596 39.1362 44.3785 39.0602 44.4521 38.96C44.5252 38.8603 44.5852 38.7295 44.6311 38.5679L49.9432 22.2018ZM31.8873 22.2733C31.8873 22.0358 31.8575 21.8236 31.7978 21.6387C31.7378 21.453 31.6508 21.2968 31.5365 21.1679C31.4215 21.0398 31.2748 20.9428 31.0959 20.876C30.9172 20.8097 30.7037 20.7761 30.4562 20.7761H28.0203C27.6808 20.7761 27.3826 20.8117 27.1256 20.8827C26.8686 20.9545 26.6462 21.0757 26.4584 21.2467C26.2701 21.4179 26.105 21.641 25.9627 21.9167C25.8202 22.1926 25.6898 22.5298 25.5706 22.9291L21.5795 33.892H21.5245L17.6709 22.9004C17.5612 22.5014 17.4322 22.1659 17.2856 21.8954C17.1388 21.624 16.9554 21.4062 16.7351 21.2397C16.5152 21.0734 16.2535 20.9545 15.9509 20.8827C15.648 20.8117 15.2854 20.7761 14.8636 20.7761H12.4966C12.0837 20.7761 11.7533 20.9047 11.5057 21.1614C11.2579 21.4179 11.134 21.7885 11.134 22.2733V38.7108C11.134 38.8055 11.1593 38.8915 11.2096 38.9675C11.2601 39.0435 11.3518 39.105 11.4852 39.1524C11.618 39.2005 11.7945 39.2384 12.0148 39.2666C12.2352 39.2952 12.5103 39.3095 12.8404 39.3095C13.1797 39.3095 13.4575 39.2952 13.6732 39.2666C13.8885 39.2384 14.0655 39.2005 14.2031 39.1524C14.3406 39.105 14.4346 39.0435 14.4849 38.9675C14.5354 38.8915 14.561 38.8055 14.561 38.7108V23.6988H14.5885L19.5702 38.6963C19.5977 38.801 19.653 38.8915 19.7353 38.9675C19.8181 39.0435 19.9305 39.1075 20.0726 39.1594C20.2149 39.2122 20.396 39.2504 20.6164 39.2733C20.8365 39.297 21.1024 39.3095 21.4142 39.3095C21.726 39.3095 21.9926 39.3019 22.2125 39.2883C22.4329 39.2733 22.6138 39.2429 22.7563 39.1955C22.8981 39.1482 23.0108 39.0834 23.0934 39.0029C23.1762 38.9226 23.2354 38.8204 23.2723 38.6963L28.4332 23.6988H28.4605V38.7108C28.4605 38.8055 28.488 38.8915 28.5433 38.9675C28.5981 39.0435 28.6897 39.105 28.8184 39.1524C28.9468 39.2005 29.121 39.2384 29.3414 39.2666C29.5615 39.2952 29.8368 39.3095 30.1669 39.3095C30.5065 39.3095 30.7865 39.2952 31.0064 39.2666C31.2268 39.2384 31.4035 39.2005 31.5365 39.1524C31.6694 39.105 31.7611 39.0435 31.8116 38.9675C31.8619 38.8915 31.8873 38.8055 31.8873 38.7108V22.2733ZM51 41H9V19H51V41Z" fill="#597CC7"/>
</svg>
