<svg width="60" height="60" viewBox="0 0 60 60" fill="none" xmlns="http://www.w3.org/2000/svg">
<path d="M30 0C13.4313 0 0 13.4313 0 30C0 46.5687 13.4313 60 30 60C46.5687 60 60 46.5687 60 30C60 13.4313 46.5687 0 30 0Z" fill="#40B3E0"/>
<path d="M29.8333 14C21.0933 14 14 21.0933 14 29.8333C14 38.5733 21.0933 45.6667 29.8333 45.6667H37.75V42.5H29.8333C22.9617 42.5 17.1667 36.705 17.1667 29.8333C17.1667 22.9617 22.9617 17.1667 29.8333 17.1667C36.705 17.1667 42.5 22.9617 42.5 29.8333V32.0975C42.5 33.3483 41.3758 34.5833 40.125 34.5833C38.8742 34.5833 37.75 33.3483 37.75 32.0975V29.8333C37.75 25.4633 34.2033 21.9167 29.8333 21.9167C25.4633 21.9167 21.9167 25.4633 21.9167 29.8333C21.9167 34.2033 25.4633 37.75 29.8333 37.75C32.0183 37.75 34.0133 36.8633 35.4383 35.4225C36.4675 36.8317 38.2408 37.75 40.125 37.75C43.2442 37.75 45.6667 35.2167 45.6667 32.0975V29.8333C45.6667 21.0933 38.5733 14 29.8333 14ZM29.8333 34.5833C27.205 34.5833 25.0833 32.4617 25.0833 29.8333C25.0833 27.205 27.205 25.0833 29.8333 25.0833C32.4617 25.0833 34.5833 27.205 34.5833 29.8333C34.5833 32.4617 32.4617 34.5833 29.8333 34.5833Z" fill="white"/>
</svg>
